# xmcd
#
# Track frame offsets:
#	150
#	17063
#	35453
#	53290
#	71390
#	86773
#	102688
#	118184
#	133495
#	149501
#
# Disc length: 2210 seconds
#
# Revision: 7
# Processed by: cddbd v1.5.2PL0 Copyright (c) Steve Scherf et al.
# Submitted via: audiograbber 1.83.01
#
DISCID=9108a00a
DTITLE=Anastacia - Resurrection
DYEAR=2014
DGENRE=Pop/Rock
TTITLE0=Staring At The Sun
TTITLE1=Lifeline
TTITLE2=Stupid Little Things
TTITLE3=I Don't Want To Be The One
TTITLE4=Evolution
TTITLE5=Pendulum
TTITLE6=Stay
TTITLE7=Dark White Girl
TTITLE8=Apology
TTITLE9=Broken Wings
EXTD=YEAR: 2014
EXTT0=
EXTT1=
EXTT2=
EXTT3=
EXTT4=
EXTT5=
EXTT6=
EXTT7=
EXTT8=
EXTT9=
PLAYORDER=
